<?xml version="1.0" encoding="UTF-8" standalone="no"?>
<!-- Created with Inkscape (http://www.inkscape.org/) -->

<svg
   width="1024"
   height="1024"
   viewBox="0 0 1024 1024"
   version="1.1"
   id="svg1"
   xmlns="http://www.w3.org/2000/svg"
   xmlns:svg="http://www.w3.org/2000/svg">
  <defs
     id="defs1" />
  <g
     id="layer1"
     transform="translate(-3432)">
    <path
       id="path53"
       style="fill:#ffffff;fill-rule:evenodd;stroke-width:91.3059;stroke-miterlimit:30;paint-order:stroke fill markers"
       d="m 3753.1587,644.32567 a 53.978424,53.978424 0 0 0 0,76.33674 53.978424,53.978424 0 0 0 76.3368,-10e-6 161.93558,161.93558 0 0 1 0.01,-0.005 161.93558,161.93558 0 0 1 228.8787,-0.12537 53.978424,53.978424 0 0 0 0.1284,0.12841 53.978424,53.978424 0 0 0 76.3367,5e-5 53.978424,53.978424 0 0 0 0,-76.33674 53.978424,53.978424 0 0 0 -0.059,-0.0591 269.89264,269.89264 0 0 0 -381.4645,-0.10094 269.89264,269.89264 0 0 0 -0.161,0.16105 z" />
    <path
       id="path54"
       style="fill:#ffffff;fill-rule:evenodd;stroke-width:73.3727;stroke-miterlimit:30;paint-order:stroke fill markers"
       d="m 3600.4842,491.6512 a 53.978424,53.978424 0 0 0 0,76.33674 53.978424,53.978424 0 0 0 76.3368,-10e-6 377.84968,377.84968 0 0 1 0.048,-0.048 377.84968,377.84968 0 0 1 534.0146,-0.24869 53.978424,53.978424 0 0 0 0.2966,0.29659 53.978424,53.978424 0 0 0 76.3368,-10e-6 53.978424,53.978424 0 0 0 -1e-4,-76.33668 485.80674,485.80674 0 0 0 -5.308,-4.65575 53.978424,53.978424 0 0 0 0,-0.002 485.80674,485.80674 0 0 0 -681.5706,4.5059 485.80674,485.80674 0 0 0 -0.1519,0.15186 z" />
    <path
       id="path55"
       style="fill:#676767;fill-opacity:1;fill-rule:evenodd;stroke-width:244.118;stroke-miterlimit:30;paint-order:stroke fill markers"
       d="m 3447.8098,338.97674 a 53.978424,53.978424 0 0 0 -1e-4,76.33673 53.978424,53.978424 0 0 0 76.3368,-10e-6 v 7.4e-4 a 593.7638,593.7638 0 0 1 839.5695,-0.13858 53.978424,53.978424 0 0 0 0.1375,0.13759 53.978424,53.978424 0 0 0 76.3367,-3e-5 53.978424,53.978424 0 0 0 0,-76.33674 701.72086,701.72086 0 0 0 -5.308,-4.65574 53.978424,53.978424 0 0 0 0,-0.003 701.72086,701.72086 0 0 0 -981.7582,7.4e-4 701.72086,701.72086 0 0 0 -0.01,0.002 53.978424,53.978424 0 0 0 -5.3081,4.65576 z" />
    <circle
       style="fill:#ffffff;fill-rule:evenodd;stroke-width:10.7957;stroke-miterlimit:30;paint-order:stroke fill markers"
       id="circle55"
       cx="-3944.0005"
       cy="-835.16724"
       r="53.978424"
       transform="scale(-1)" />
  </g>
</svg>
