<?xml version="1.0" encoding="UTF-8" standalone="no"?>
<!-- Created with Inkscape (http://www.inkscape.org/) -->

<svg
   version="1.1"
   id="svg1"
   width="512"
   height="512"
   viewBox="0 0 512 512"
   sodipodi:docname="logout.svg"
   inkscape:version="1.4.2 (ebf0e940d0, 2025-05-08)"
   xmlns:inkscape="http://www.inkscape.org/namespaces/inkscape"
   xmlns:sodipodi="http://sodipodi.sourceforge.net/DTD/sodipodi-0.dtd"
   xmlns="http://www.w3.org/2000/svg"
   xmlns:svg="http://www.w3.org/2000/svg">
  <defs
     id="defs1" />
  <sodipodi:namedview
     id="namedview1"
     pagecolor="#ffffff"
     bordercolor="#000000"
     borderopacity="0.25"
     inkscape:showpageshadow="2"
     inkscape:pageopacity="0.0"
     inkscape:pagecheckerboard="0"
     inkscape:deskcolor="#d1d1d1"
     inkscape:zoom="0.84570313"
     inkscape:cx="50.254042"
     inkscape:cy="422.13395"
     inkscape:window-width="1908"
     inkscape:window-height="1019"
     inkscape:window-x="0"
     inkscape:window-y="0"
     inkscape:window-maximized="1"
     inkscape:current-layer="g1">
    <inkscape:page
       x="0"
       y="0"
       width="512"
       height="512"
       id="page2"
       margin="0"
       bleed="0" />
  </sodipodi:namedview>
  <g
     inkscape:groupmode="layer"
     inkscape:label="Image"
     id="g1">
    <path
       id="path12"
       style="fill:#ffffff;fill-opacity:1;fill-rule:evenodd;stroke-width:21.2627;stroke-linecap:round;stroke-linejoin:round"
       d="M 64,0 A 64,64 0 0 0 0,64 v 64 256 64 a 64,64 0 0 0 64,64 h 64 192 a 32,32 0 0 0 32,-32 32,32 0 0 0 -32,-32 H 128 96 A 32,32 0 0 1 64,416 V 384 128 96 A 32,32 0 0 1 96,64 h 32 192 A 32,32 0 0 0 352,32 32,32 0 0 0 320,0 H 128 Z" />
    <path
       id="circle13"
       style="fill:#ffffff;fill-opacity:1;fill-rule:evenodd;stroke-width:10.4289;stroke-linecap:round;stroke-linejoin:round"
       d="m 384.00056,128 a 32.000093,32.000117 0 0 0 -22.62702,9.37308 32.000093,32.000117 0 0 0 0,45.25407 32.000093,32.000117 0 0 0 0.14453,0.14453 l 41.22863,41.22867 H 256.00019 224.00009 A 32.000093,32.000117 0 0 0 192,256.00047 a 32.000093,32.000117 0 0 0 32.00009,32.00011 h 32.0001 146.74651 l -41.22863,41.22867 a 32.000093,32.000117 0 0 0 -0.14453,0.14453 32.000093,32.000117 0 0 0 0,45.25407 32.000093,32.000117 0 0 0 45.25403,0 32.000093,32.000117 0 0 0 0.1465,-0.14648 l 95.7073,-95.70738 a 32.000093,32.000117 0 0 0 0.14648,-0.14649 32.000093,32.000117 0 0 0 0,-45.25407 32.000093,32.000117 0 0 0 -0.14648,-0.14649 l -95.7073,-95.70738 a 32.000093,32.000117 0 0 0 -0.1465,-0.14648 A 32.000093,32.000117 0 0 0 384.00056,128 Z" />
  </g>
</svg>
