<?xml version="1.0" encoding="UTF-8" standalone="no"?>
<!-- Created with Inkscape (http://www.inkscape.org/) -->

<svg
   width="512"
   height="512"
   viewBox="0 0 135.46666 135.46667"
   version="1.1"
   id="svg1"
   inkscape:export-filename="shutdown.svg"
   inkscape:export-xdpi="96"
   inkscape:export-ydpi="96"
   xml:space="preserve"
   sodipodi:docname="reboot.svg"
   inkscape:version="1.4.2 (ebf0e940d0, 2025-05-08)"
   xmlns:inkscape="http://www.inkscape.org/namespaces/inkscape"
   xmlns:sodipodi="http://sodipodi.sourceforge.net/DTD/sodipodi-0.dtd"
   xmlns="http://www.w3.org/2000/svg"
   xmlns:svg="http://www.w3.org/2000/svg"><sodipodi:namedview
     id="namedview1"
     pagecolor="#ffffff"
     bordercolor="#000000"
     borderopacity="0.25"
     inkscape:showpageshadow="2"
     inkscape:pageopacity="0.0"
     inkscape:pagecheckerboard="0"
     inkscape:deskcolor="#d1d1d1"
     inkscape:document-units="px"
     inkscape:zoom="1.6914062"
     inkscape:cx="256.29562"
     inkscape:cy="256.00001"
     inkscape:window-width="1908"
     inkscape:window-height="1019"
     inkscape:window-x="0"
     inkscape:window-y="0"
     inkscape:window-maximized="1"
     inkscape:current-layer="layer1"
     showguides="false"><inkscape:page
       x="0"
       y="0"
       width="135.46666"
       height="135.46667"
       id="page2"
       margin="0"
       bleed="0" /></sodipodi:namedview><defs
     id="defs1" /><g
     inkscape:label="Layer 1"
     inkscape:groupmode="layer"
     id="layer1"
     transform="translate(-3.9635852)"><path
       id="circle3"
       style="fill:#ffffff;fill-opacity:1;fill-rule:evenodd;stroke-width:4.40981;stroke-linecap:round;stroke-linejoin:round"
       d="m 15.699833,0 a 8.4666759,8.4666662 0 0 0 -8.4666763,8.4666666 8.4666759,8.4666662 0 0 0 0,0.043925 v 2.2830645 0.920874 4.294312 a 8.4667436,8.46673 22.256822 0 0 0,0.0036 v 4.517037 19.430338 a 8.4667436,8.46673 22.256822 0 0 8.4666763,8.466667 8.4667436,8.46673 22.256822 0 0 0.0031,0 h 15.477109 8.46461 a 8.4667436,8.46673 22.256822 0 0 0.0026,5.17e-4 h 3.306778 4.238506 a 8.4666759,8.4666662 0 0 0 8.467193,-8.467184 8.4666759,8.4666662 0 0 0 -8.467193,-8.466666 8.4666759,8.4666662 0 0 0 -0.04444,0 h -4.194064 v 5.17e-4 h -3.306778 a 8.4667436,8.46673 22.256822 0 0 -0.0026,0 h -3.501599 a 50.800057,50.799999 0 0 1 71.474787,0.363285 50.800057,50.799999 0 0 1 0,71.84213 50.800057,50.799999 0 0 1 -71.841691,0 50.800057,50.799999 0 0 1 -14.879212,-35.920809 8.4666759,8.4666662 0 0 0 -8.466675,-8.466667 8.4666759,8.4666662 0 0 0 -8.4666768,8.466667 8.4666759,8.4666662 0 0 0 0.072347,1.104842 8.4666759,8.4666662 0 0 0 0,5.17e-4 67.733407,67.73333 0 0 0 19.7977807,46.75735 l -0.03152,0.0315 a 8.4666759,8.4666662 0 0 0 0.833025,0.73123 67.733407,67.73333 0 0 0 94.956585,-0.73123 67.733407,67.73333 0 0 0 0,-95.788979 A 67.733407,67.73333 0 0 0 71.953311,0.04547526 67.733407,67.73333 0 0 0 24.165992,19.522322 v -3.505729 a 8.4667436,8.46673 22.256822 0 0 5.17e-4,-0.0041 L 24.165992,11.71453 V 10.793656 8.4666666 A 8.4666759,8.4666662 0 0 0 15.699833,0 Z" /></g></svg>
