<?xml version="1.0" encoding="UTF-8" standalone="no"?>
<!-- Created with Inkscape (http://www.inkscape.org/) -->

<svg
   width="512"
   height="512"
   viewBox="0 0 135.46666 135.46667"
   version="1.1"
   id="svg1"
   inkscape:export-filename="shutdown.svg"
   inkscape:export-xdpi="96"
   inkscape:export-ydpi="96"
   xml:space="preserve"
   sodipodi:docname="shutdown.svg"
   inkscape:version="1.4.2 (ebf0e940d0, 2025-05-08)"
   xmlns:inkscape="http://www.inkscape.org/namespaces/inkscape"
   xmlns:sodipodi="http://sodipodi.sourceforge.net/DTD/sodipodi-0.dtd"
   xmlns="http://www.w3.org/2000/svg"
   xmlns:svg="http://www.w3.org/2000/svg"><sodipodi:namedview
     id="namedview1"
     pagecolor="#ffffff"
     bordercolor="#000000"
     borderopacity="0.25"
     inkscape:showpageshadow="2"
     inkscape:pageopacity="0.0"
     inkscape:pagecheckerboard="0"
     inkscape:deskcolor="#d1d1d1"
     inkscape:document-units="px"
     inkscape:zoom="1.6914062"
     inkscape:cx="255.7044"
     inkscape:cy="256.00001"
     inkscape:window-width="1908"
     inkscape:window-height="1019"
     inkscape:window-x="0"
     inkscape:window-y="0"
     inkscape:window-maximized="1"
     inkscape:current-layer="layer1"
     showguides="false"><inkscape:page
       x="0"
       y="0"
       width="135.46666"
       height="135.46667"
       id="page2"
       margin="0"
       bleed="0" /></sodipodi:namedview><defs
     id="defs1" /><g
     inkscape:label="Layer 1"
     inkscape:groupmode="layer"
     id="layer1"
     transform="translate(-3.9635852)"><path
       id="circle2"
       style="fill:#ffffff;fill-rule:evenodd;stroke-width:1.44015;stroke-linecap:round;stroke-linejoin:round;stroke-opacity:0;fill-opacity:1"
       d="m 116.78866,26.657049 a 7.9684028,7.9684028 0 0 0 -0.0154,-0.01341 7.9684028,7.9684028 0 0 0 -11.25355,0.01341 7.9684028,7.9684028 0 0 0 -0.0144,11.254581 l -9.4e-4,10e-4 A 47.810418,47.810418 0 0 1 119.5076,71.719352 47.810418,47.810418 0 0 1 71.697126,119.52982 47.810418,47.810418 0 0 1 23.886658,71.719356 a 47.810418,47.810418 0 0 1 14.0034,-33.80673 l -3.43e-4,-3.43e-4 a 7.9684028,7.9684028 0 0 0 0,-11.269024 7.9684028,7.9684028 0 0 0 -11.269024,0 7.9684028,7.9684028 0 0 0 -6.87e-4,6.88e-4 A 63.747222,63.747222 0 0 0 7.9497977,71.71973 63.747222,63.747222 0 0 0 71.696747,135.46667 63.747222,63.747222 0 0 0 135.44404,71.719387 63.747222,63.747222 0 0 0 116.89836,26.768819 a 7.9684028,7.9684028 0 0 0 -0.1097,-0.11177 z" /><path
       id="circle13"
       style="fill:#ffffff;fill-rule:evenodd;stroke-width:1.44015;stroke-linecap:round;stroke-linejoin:round;stroke-opacity:0;fill-opacity:1"
       d="M 71.718214,1.4804601e-5 A 7.9684028,7.9684028 0 0 0 63.749811,7.9684179 V 47.810433 a 7.9684028,7.9684028 0 0 0 7.968403,7.968403 7.9684028,7.9684028 0 0 0 7.968403,-7.968403 7.9684028,7.9684028 0 0 0 0,-0.0039 V 7.9723087 a 7.9684028,7.9684028 0 0 0 0,-0.00389 A 7.9684028,7.9684028 0 0 0 71.718214,1.4804601e-5 Z" /></g></svg>
