<?xml version="1.0" encoding="UTF-8" standalone="no"?>
<!-- Created with Inkscape (http://www.inkscape.org/) -->

<svg
   width="1024"
   height="1024"
   viewBox="0 0 1024 1024"
   version="1.1"
   id="svg1"
   xml:space="preserve"
   xmlns="http://www.w3.org/2000/svg"
   xmlns:svg="http://www.w3.org/2000/svg"><defs
     id="defs1" /><g
     id="layer1"><path
       id="path36"
       style="fill:#ffffff;fill-rule:evenodd;stroke-width:28.8;stroke-miterlimit:30;paint-order:stroke fill markers"
       d="m 474.49766,242.67969 a 38.4,38.4 0 0 0 -27.15235,11.24765 38.4,38.4 0 0 0 -0.21328,0.21563 L 311.05626,391.23828 a 33.6,33.6 0 0 1 -23.70704,9.84141 h -86.45156 a 28.8,28.8 0 0 0 -28.8,28.8 v 172.8 a 28.8,28.8 0 0 0 28.8,28.8 h 86.45156 a 33.6,33.6 0 0 1 23.75859,9.83905 l 124.98985,84.25782 -124.98985,-84.25546 136.0875,137.10703 a 38.4,38.4 0 0 0 0.20156,0.2039 38.4,38.4 0 0 0 54.30703,0 38.4,38.4 0 0 0 11.24532,-27.15234 v -470.4 h -0.0516 A 38.4,38.4 0 0 0 501.65,253.92734 38.4,38.4 0 0 0 474.49766,242.67969 Z" /><circle
       style="fill:#ffffff;fill-rule:evenodd;stroke-width:31.8906;stroke-miterlimit:30;paint-order:stroke fill markers"
       id="path9"
       cx="-38"
       cy="-38"
       r="38" /><circle
       style="fill:#ffffff;fill-rule:evenodd;stroke-width:31.8906;stroke-miterlimit:30;paint-order:stroke fill markers"
       id="circle9"
       cx="-38"
       cy="-38"
       r="38" /><path
       id="path23"
       style="fill:#ffffff;fill-rule:evenodd;stroke-width:55.4518;stroke-miterlimit:30;paint-order:stroke fill markers"
       d="m 739.05673,242.04804 a 38,38 0 0 0 -53.74012,0 38,38 0 0 0 0,53.74012 38,38 0 0 0 0.0124,0.0124 312,312 0 0 1 91.37007,220.60489 312,312 0 0 1 -91.3825,220.61731 l 10e-4,0.001 a 38,38 0 0 0 -3.22479,3.74408 38,38 0 0 0 -6.42197,13.26654 38,38 0 0 0 -0.93636,4.85307 38,38 0 0 0 4.82131,23.80547 38,38 0 0 0 10e-4,0.001 38,38 0 0 0 6.00902,7.81823 38,38 0 0 0 7.81823,6.00902 38,38 0 0 0 18.87505,5.11962 38,38 0 0 0 9.78487,-1.23329 38,38 0 0 0 9.13576,-3.71093 38,38 0 0 0 7.87486,-5.93583 l 10e-4,10e-4 a 388,388 0 0 0 0.24997,-0.24997 38,38 0 0 0 0.0539,-0.0539 388,388 0 0 0 113.33872,-274.0536 388,388 0 0 0 -110.36113,-270.61474 388,388 0 0 0 -0.003,-0.006 38,38 0 0 0 -3.27865,-3.73718 z" /><path
       id="path25"
       style="fill:#ffffff;fill-rule:evenodd;stroke-width:59.8102;stroke-miterlimit:30;paint-order:stroke fill markers"
       d="m 631.82647,349.27831 a 38,38 0 0 0 -53.74012,0 38,38 0 0 0 0,53.74011 160,160 0 0 1 0,226.27417 38,38 0 0 0 0,53.74012 38,38 0 0 0 53.74012,0 38,38 0 0 0 3.27727,-3.73855 236,236 0 0 0 0.006,-326.27178 236,236 0 0 0 -0.004,-0.007 38,38 0 0 0 -3.27865,-3.73717 z" /></g></svg>
