<?xml version="1.0" encoding="UTF-8" standalone="no"?>
<!-- Created with Inkscape (http://www.inkscape.org/) -->

<svg
   width="1024"
   height="1024"
   viewBox="0 0 1024 1024"
   version="1.1"
   id="svg1"
   xml:space="preserve"
   xmlns="http://www.w3.org/2000/svg"
   xmlns:svg="http://www.w3.org/2000/svg"><defs
     id="defs1" /><g
     id="layer1"
     transform="translate(-4576)"><path
       id="path56"
       style="fill:#ffffff;fill-opacity:1;fill-rule:evenodd;stroke-miterlimit:30;paint-order:stroke fill markers"
       d="M 5328,756.4082 5010.3086,888 H 5264 a 64,64 0 0 0 64,-64 z" /><path
       id="path62"
       style="fill:#ffffff;fill-opacity:1;fill-rule:evenodd;stroke:none;stroke-width:8;stroke-miterlimit:30;stroke-dasharray:none;stroke-opacity:1;paint-order:stroke fill markers"
       d="m 5024,104 a 32,32 0 0 0 -32,32 v 32 h 32 128 32 v -32 a 32,32 0 0 0 -32,-32 z" /><path
       id="path63"
       style="fill:#ffffff;fill-opacity:1;fill-rule:evenodd;stroke-miterlimit:30;paint-order:stroke fill markers"
       d="M 5328,756.4082 5010.3086,888 H 5264 a 64,64 0 0 0 64,-64 z" /><path
       id="path61"
       style="fill:none;fill-opacity:1;fill-rule:evenodd;stroke:#ffffff;stroke-width:24;stroke-miterlimit:30;stroke-dasharray:none;stroke-opacity:1;paint-order:stroke fill markers"
       d="m 4912,168 a 64,64 0 0 0 -64,64 v 592 a 64,64 0 0 0 64,64 h 352 a 64,64 0 0 0 64,-64 V 232 a 64,64 0 0 0 -64,-64 z" /></g></svg>
