<?xml version="1.0" encoding="UTF-8" standalone="no"?>
<!-- Created with Inkscape (http://www.inkscape.org/) -->

<svg
   width="1024"
   height="1024"
   viewBox="0 0 1024 1024"
   version="1.1"
   id="svg1"
   xml:space="preserve"
   xmlns="http://www.w3.org/2000/svg"
   xmlns:svg="http://www.w3.org/2000/svg"><defs
     id="defs1" /><g
     id="layer1"
     transform="translate(-3432)"><path
       id="path39"
       style="fill:#ffffff;fill-rule:evenodd;stroke-width:28.8;stroke-miterlimit:30;paint-order:stroke fill markers"
       d="m 3906.7439,241.9664 a 38.4,38.4 0 0 0 -27.1524,11.24765 38.4,38.4 0 0 0 -0.2132,0.21563 l -136.0758,137.09531 a 33.6,33.6 0 0 1 -23.707,9.84141 h -86.4516 a 28.8,28.8 0 0 0 -28.8,28.8 v 172.8 a 28.8,28.8 0 0 0 28.8,28.8 h 86.4516 a 33.6,33.6 0 0 1 23.7586,9.83906 l 124.9898,84.25782 -124.9898,-84.25547 136.0874,137.10703 a 38.4,38.4 0 0 0 0.2016,0.2039 38.4,38.4 0 0 0 54.3071,0 38.4,38.4 0 0 0 11.2453,-27.15234 v -470.4 h -0.052 a 38.4,38.4 0 0 0 -11.2476,-27.15235 38.4,38.4 0 0 0 -27.1524,-11.24765 z" /><path
       id="circle43"
       style="fill:#ffffff;fill-rule:evenodd;stroke-width:28.8;stroke-miterlimit:30;paint-order:stroke fill markers"
       d="m 4045.995,376.88684 a 33.6,33.6 0 0 0 -23.7585,9.84149 33.6,33.6 0 0 0 0,47.51716 l 77.0414,77.04143 -77.0414,77.04142 a 33.6,33.6 0 0 0 0,47.51716 33.6,33.6 0 0 0 47.5171,0 33.6,33.6 0 0 0 0.024,-0.0234 l 77.018,-77.018 77.0415,77.04142 a 33.6,33.6 0 0 0 47.5172,0 33.6,33.6 0 0 0 -1e-4,-47.51715 33.6,33.6 0 0 0 -0.028,-0.0281 l -77.0134,-77.01335 77.0134,-77.01335 a 33.6,33.6 0 0 0 0.028,-0.0281 33.6,33.6 0 0 0 1e-4,-47.51715 33.6,33.6 0 0 0 -47.5172,0 l -77.0415,77.04142 -77.018,-77.018 a 33.6,33.6 0 0 0 -0.024,-0.0234 33.6,33.6 0 0 0 -23.7586,-9.84149 z" /></g></svg>
