<?xml version="1.0" encoding="UTF-8" standalone="no"?>
<!-- Created with Inkscape (http://www.inkscape.org/) -->

<svg
   width="1024"
   height="1024"
   viewBox="0 0 1024 1024"
   version="1.1"
   id="svg1"
   xmlns="http://www.w3.org/2000/svg"
   xmlns:svg="http://www.w3.org/2000/svg">
  <defs
     id="defs1" />
  <g
     id="layer1"
     transform="translate(-5720)">
    <path
       id="path3"
       style="fill:#ffffff;fill-rule:evenodd;stroke-width:66.8001;stroke-miterlimit:30;paint-order:stroke fill markers"
       d="m 6370.6771,372.37915 a 39.491006,39.491015 0 0 0 -55.8484,0 39.491006,39.491015 0 0 0 0,55.84856 118.47324,118.47327 0 0 1 0.01,0.007 118.47324,118.47327 0 0 1 0.092,167.44935 39.491006,39.491015 0 0 0 -0.094,0.0939 39.491006,39.491015 0 0 0 -1e-4,55.84849 39.491006,39.491015 0 0 0 55.8486,0 39.491006,39.491015 0 0 0 0.043,-0.0432 197.45541,197.45545 0 0 0 0.074,-279.08225 197.45541,197.45545 0 0 0 -0.1179,-0.11779 z" />
    <path
       id="path4"
       style="fill:#ffffff;fill-rule:evenodd;stroke-width:53.68;stroke-miterlimit:30;paint-order:stroke fill markers"
       d="m 6482.3749,260.68136 a 39.491006,39.491015 0 0 0 -55.8485,0 39.491006,39.491015 0 0 0 0,55.84856 276.43756,276.43762 0 0 1 0.035,0.0351 276.43756,276.43762 0 0 1 0.1819,390.68904 39.491006,39.491015 0 0 0 -0.217,0.21699 39.491006,39.491015 0 0 0 0,55.84857 39.491006,39.491015 0 0 0 55.8485,-7e-5 355.41973,355.41981 0 0 0 3.4061,-3.88338 355.41973,355.41981 0 0 0 -3.2965,-498.64209 355.41973,355.41981 0 0 0 -0.1111,-0.11113 z" />
    <path
       id="path5"
       style="fill:#ffffff;fill-rule:evenodd;stroke-width:178.598;stroke-miterlimit:30;paint-order:stroke fill markers"
       d="m 6594.0727,148.98363 a 39.491006,39.491015 0 0 0 -55.8486,-8e-5 39.491006,39.491015 0 0 0 0,55.84857 h -5e-4 a 434.4019,434.402 0 0 1 0.1014,614.23527 39.491006,39.491015 0 0 0 -0.1006,0.1006 39.491006,39.491015 0 0 0 0,55.84849 39.491006,39.491015 0 0 0 55.8485,0 513.38406,513.38417 0 0 0 3.4062,-3.8834 513.38406,513.38417 0 0 0 -6e-4,-718.26155 513.38406,513.38417 0 0 0 0,-0.007 39.491006,39.491015 0 0 0 -3.4062,-3.88344 z" />
    <path
       id="path6"
       style="fill:#ffffff;fill-rule:evenodd;stroke-width:66.8001;stroke-miterlimit:30;paint-order:stroke fill markers"
       d="m 6093.3229,651.62089 a 39.491006,39.491015 0 0 0 55.8484,0 39.491006,39.491015 0 0 0 0,-55.84857 118.47324,118.47327 0 0 1 -0.01,-0.007 118.47324,118.47327 0 0 1 -0.092,-167.44936 39.491006,39.491015 0 0 0 0.094,-0.0939 39.491006,39.491015 0 0 0 1e-4,-55.84849 39.491006,39.491015 0 0 0 -55.8486,0 39.491006,39.491015 0 0 0 -0.043,0.0432 197.45541,197.45545 0 0 0 -0.074,279.08226 197.45541,197.45545 0 0 0 0.1178,0.11779 z" />
    <path
       id="path7"
       style="fill:#ffffff;fill-rule:evenodd;stroke-width:53.68;stroke-miterlimit:30;paint-order:stroke fill markers"
       d="m 5981.6251,763.31869 a 39.491006,39.491015 0 0 0 55.8485,0 39.491006,39.491015 0 0 0 0,-55.84857 276.43756,276.43762 0 0 1 -0.035,-0.0351 276.43756,276.43762 0 0 1 -0.182,-390.68904 39.491006,39.491015 0 0 0 0.217,-0.217 39.491006,39.491015 0 0 0 0,-55.84857 39.491006,39.491015 0 0 0 -55.8485,8e-5 355.41973,355.41981 0 0 0 -3.4061,3.88337 355.41973,355.41981 0 0 0 3.2965,498.6421 355.41973,355.41981 0 0 0 0.1111,0.11113 z" />
    <path
       id="path8"
       style="fill:#ffffff;fill-rule:evenodd;stroke-width:178.598;stroke-miterlimit:30;paint-order:stroke fill markers"
       d="m 5869.9273,875.01638 a 39.491006,39.491015 0 0 0 55.8486,10e-5 39.491006,39.491015 0 0 0 0,-55.84857 h 5e-4 a 434.4019,434.402 0 0 1 -0.1014,-614.23527 39.491006,39.491015 0 0 0 0.1007,-0.10059 39.491006,39.491015 0 0 0 0,-55.84846 39.491006,39.491015 0 0 0 -55.8486,0 513.38406,513.38417 0 0 0 -3.4061,3.88337 513.38406,513.38417 0 0 0 5e-4,718.26152 513.38406,513.38417 0 0 0 0,0.01 39.491006,39.491015 0 0 0 3.4062,3.8834 z" />
    <ellipse
       style="fill:#ffffff;fill-rule:evenodd;stroke-width:7.89821;stroke-miterlimit:30;paint-order:stroke fill markers"
       id="circle8"
       cx="511.9996"
       cy="-6232.9438"
       transform="rotate(90)"
       rx="39.491013"
       ry="39.491005" />
  </g>
</svg>
